<mxfile host="Electron" agent="Mozilla/5.0 (Windows NT 10.0; Win64; x64) AppleWebKit/537.36 (KHTML, like Gecko) draw.io/26.0.16 Chrome/132.0.6834.196 Electron/34.2.0 Safari/537.36" version="26.0.16">
  <diagram name="Page-1" id="8ce9d11a-91a2-4d17-14d8-a56ed91bf033">
    <mxGraphModel dx="1276" dy="606" grid="1" gridSize="10" guides="1" tooltips="1" connect="1" arrows="1" fold="1" page="1" pageScale="1" pageWidth="1100" pageHeight="850" background="none" math="0" shadow="0">
      <root>
        <mxCell id="0" />
        <mxCell id="1" parent="0" />
        <mxCell id="1UQPvfjZrWubkmDfWKeR-1" value="&lt;font size=&quot;3&quot;&gt;ĐV Khách&lt;/font&gt;" style="rounded=0;whiteSpace=wrap;html=1;" vertex="1" parent="1">
          <mxGeometry x="480" y="90" width="120" height="60" as="geometry" />
        </mxCell>
        <mxCell id="1UQPvfjZrWubkmDfWKeR-3" value="&lt;font size=&quot;3&quot;&gt;Nơi giao&lt;/font&gt;" style="rounded=0;whiteSpace=wrap;html=1;" vertex="1" parent="1">
          <mxGeometry x="740" y="470" width="120" height="60" as="geometry" />
        </mxCell>
        <mxCell id="1UQPvfjZrWubkmDfWKeR-4" value="&lt;font size=&quot;3&quot;&gt;Hàng&lt;/font&gt;" style="rounded=0;whiteSpace=wrap;html=1;" vertex="1" parent="1">
          <mxGeometry x="210" y="520" width="120" height="60" as="geometry" />
        </mxCell>
        <mxCell id="1UQPvfjZrWubkmDfWKeR-5" value="Tên ĐV" style="ellipse;whiteSpace=wrap;html=1;" vertex="1" parent="1">
          <mxGeometry x="430" y="20" width="90" height="60" as="geometry" />
        </mxCell>
        <mxCell id="1UQPvfjZrWubkmDfWKeR-6" value="Địa chỉ" style="ellipse;whiteSpace=wrap;html=1;" vertex="1" parent="1">
          <mxGeometry x="530" y="10" width="90" height="60" as="geometry" />
        </mxCell>
        <mxCell id="1UQPvfjZrWubkmDfWKeR-7" value="&lt;u&gt;Mã ĐV&lt;/u&gt;" style="ellipse;whiteSpace=wrap;html=1;" vertex="1" parent="1">
          <mxGeometry x="340" y="60" width="90" height="60" as="geometry" />
        </mxCell>
        <mxCell id="1UQPvfjZrWubkmDfWKeR-8" value="Điện thoại" style="ellipse;whiteSpace=wrap;html=1;" vertex="1" parent="1">
          <mxGeometry x="340" y="130" width="90" height="60" as="geometry" />
        </mxCell>
        <mxCell id="1UQPvfjZrWubkmDfWKeR-9" value="&lt;font size=&quot;3&quot;&gt;Người đặt&lt;/font&gt;" style="rounded=0;whiteSpace=wrap;html=1;" vertex="1" parent="1">
          <mxGeometry x="240" y="340" width="120" height="60" as="geometry" />
        </mxCell>
        <mxCell id="1UQPvfjZrWubkmDfWKeR-10" value="&lt;font size=&quot;3&quot;&gt;Người nhận&lt;/font&gt;" style="rounded=0;whiteSpace=wrap;html=1;" vertex="1" parent="1">
          <mxGeometry x="680" y="290" width="120" height="60" as="geometry" />
        </mxCell>
        <mxCell id="1UQPvfjZrWubkmDfWKeR-12" value="&lt;font size=&quot;3&quot;&gt;Người giao&lt;/font&gt;" style="rounded=0;whiteSpace=wrap;html=1;" vertex="1" parent="1">
          <mxGeometry x="550" y="570" width="120" height="60" as="geometry" />
        </mxCell>
        <mxCell id="1UQPvfjZrWubkmDfWKeR-13" value="Thuộc 1" style="rhombus;whiteSpace=wrap;html=1;" vertex="1" parent="1">
          <mxGeometry x="280" y="250" width="80" height="50" as="geometry" />
        </mxCell>
        <mxCell id="1UQPvfjZrWubkmDfWKeR-14" value="Đặt" style="rhombus;whiteSpace=wrap;html=1;" vertex="1" parent="1">
          <mxGeometry x="260" y="435" width="80" height="50" as="geometry" />
        </mxCell>
        <mxCell id="1UQPvfjZrWubkmDfWKeR-15" value="Giao" style="rhombus;whiteSpace=wrap;html=1;" vertex="1" parent="1">
          <mxGeometry x="510" y="415" width="80" height="50" as="geometry" />
        </mxCell>
        <mxCell id="1UQPvfjZrWubkmDfWKeR-16" value="Thuộc 2" style="rhombus;whiteSpace=wrap;html=1;" vertex="1" parent="1">
          <mxGeometry x="730" y="190" width="80" height="50" as="geometry" />
        </mxCell>
        <mxCell id="1UQPvfjZrWubkmDfWKeR-17" value="" style="endArrow=none;html=1;rounded=0;" edge="1" parent="1" source="1UQPvfjZrWubkmDfWKeR-1" target="1UQPvfjZrWubkmDfWKeR-6">
          <mxGeometry width="50" height="50" relative="1" as="geometry">
            <mxPoint x="520" y="290" as="sourcePoint" />
            <mxPoint x="570" y="240" as="targetPoint" />
          </mxGeometry>
        </mxCell>
        <mxCell id="1UQPvfjZrWubkmDfWKeR-18" value="" style="endArrow=none;html=1;rounded=0;" edge="1" parent="1" source="1UQPvfjZrWubkmDfWKeR-1" target="1UQPvfjZrWubkmDfWKeR-8">
          <mxGeometry width="50" height="50" relative="1" as="geometry">
            <mxPoint x="351" y="170" as="sourcePoint" />
            <mxPoint x="396" y="107" as="targetPoint" />
          </mxGeometry>
        </mxCell>
        <mxCell id="1UQPvfjZrWubkmDfWKeR-19" value="" style="endArrow=none;html=1;rounded=0;" edge="1" parent="1" source="1UQPvfjZrWubkmDfWKeR-1" target="1UQPvfjZrWubkmDfWKeR-7">
          <mxGeometry width="50" height="50" relative="1" as="geometry">
            <mxPoint x="361" y="180" as="sourcePoint" />
            <mxPoint x="406" y="117" as="targetPoint" />
          </mxGeometry>
        </mxCell>
        <mxCell id="1UQPvfjZrWubkmDfWKeR-20" value="" style="endArrow=none;html=1;rounded=0;" edge="1" parent="1" source="1UQPvfjZrWubkmDfWKeR-1" target="1UQPvfjZrWubkmDfWKeR-5">
          <mxGeometry width="50" height="50" relative="1" as="geometry">
            <mxPoint x="371" y="190" as="sourcePoint" />
            <mxPoint x="416" y="127" as="targetPoint" />
          </mxGeometry>
        </mxCell>
        <mxCell id="1UQPvfjZrWubkmDfWKeR-21" value="" style="endArrow=none;html=1;rounded=0;" edge="1" parent="1" source="1UQPvfjZrWubkmDfWKeR-1" target="1UQPvfjZrWubkmDfWKeR-13">
          <mxGeometry width="50" height="50" relative="1" as="geometry">
            <mxPoint x="520" y="290" as="sourcePoint" />
            <mxPoint x="570" y="240" as="targetPoint" />
          </mxGeometry>
        </mxCell>
        <mxCell id="1UQPvfjZrWubkmDfWKeR-22" value="" style="endArrow=none;html=1;rounded=0;" edge="1" parent="1">
          <mxGeometry width="50" height="50" relative="1" as="geometry">
            <mxPoint x="460" y="170" as="sourcePoint" />
            <mxPoint x="460" y="190" as="targetPoint" />
            <Array as="points" />
          </mxGeometry>
        </mxCell>
        <mxCell id="1UQPvfjZrWubkmDfWKeR-23" value="" style="endArrow=none;html=1;rounded=0;" edge="1" parent="1">
          <mxGeometry width="50" height="50" relative="1" as="geometry">
            <mxPoint x="470" y="160" as="sourcePoint" />
            <mxPoint x="470" y="180" as="targetPoint" />
          </mxGeometry>
        </mxCell>
        <mxCell id="1UQPvfjZrWubkmDfWKeR-24" value="" style="endArrow=none;html=1;rounded=0;" edge="1" parent="1" source="1UQPvfjZrWubkmDfWKeR-9" target="1UQPvfjZrWubkmDfWKeR-13">
          <mxGeometry width="50" height="50" relative="1" as="geometry">
            <mxPoint x="520" y="290" as="sourcePoint" />
            <mxPoint x="570" y="240" as="targetPoint" />
          </mxGeometry>
        </mxCell>
        <mxCell id="1UQPvfjZrWubkmDfWKeR-25" value="" style="endArrow=none;html=1;rounded=0;exitX=0.327;exitY=-0.017;exitDx=0;exitDy=0;exitPerimeter=0;" edge="1" parent="1" source="1UQPvfjZrWubkmDfWKeR-9">
          <mxGeometry width="50" height="50" relative="1" as="geometry">
            <mxPoint x="520" y="290" as="sourcePoint" />
            <mxPoint x="310" y="320" as="targetPoint" />
          </mxGeometry>
        </mxCell>
        <mxCell id="1UQPvfjZrWubkmDfWKeR-26" value="" style="endArrow=none;html=1;rounded=0;exitX=0.667;exitY=0;exitDx=0;exitDy=0;exitPerimeter=0;" edge="1" parent="1" source="1UQPvfjZrWubkmDfWKeR-9">
          <mxGeometry width="50" height="50" relative="1" as="geometry">
            <mxPoint x="520" y="290" as="sourcePoint" />
            <mxPoint x="310" y="320" as="targetPoint" />
          </mxGeometry>
        </mxCell>
        <mxCell id="1UQPvfjZrWubkmDfWKeR-27" value="" style="endArrow=none;html=1;rounded=0;" edge="1" parent="1">
          <mxGeometry width="50" height="50" relative="1" as="geometry">
            <mxPoint x="300" y="320" as="sourcePoint" />
            <mxPoint x="320" y="320" as="targetPoint" />
          </mxGeometry>
        </mxCell>
        <mxCell id="1UQPvfjZrWubkmDfWKeR-28" value="Mã NĐ" style="ellipse;whiteSpace=wrap;html=1;" vertex="1" parent="1">
          <mxGeometry x="80" y="290" width="90" height="60" as="geometry" />
        </mxCell>
        <mxCell id="1UQPvfjZrWubkmDfWKeR-29" value="Họ tên NĐ" style="ellipse;whiteSpace=wrap;html=1;" vertex="1" parent="1">
          <mxGeometry x="60" y="365" width="90" height="60" as="geometry" />
        </mxCell>
        <mxCell id="1UQPvfjZrWubkmDfWKeR-30" value="" style="endArrow=none;html=1;rounded=0;" edge="1" parent="1" source="1UQPvfjZrWubkmDfWKeR-9" target="1UQPvfjZrWubkmDfWKeR-29">
          <mxGeometry width="50" height="50" relative="1" as="geometry">
            <mxPoint x="270" y="212" as="sourcePoint" />
            <mxPoint x="178" y="231" as="targetPoint" />
          </mxGeometry>
        </mxCell>
        <mxCell id="1UQPvfjZrWubkmDfWKeR-31" value="" style="endArrow=none;html=1;rounded=0;" edge="1" parent="1" source="1UQPvfjZrWubkmDfWKeR-9" target="1UQPvfjZrWubkmDfWKeR-28">
          <mxGeometry width="50" height="50" relative="1" as="geometry">
            <mxPoint x="280" y="222" as="sourcePoint" />
            <mxPoint x="188" y="241" as="targetPoint" />
          </mxGeometry>
        </mxCell>
        <mxCell id="1UQPvfjZrWubkmDfWKeR-33" value="" style="endArrow=none;html=1;rounded=0;" edge="1" parent="1" source="1UQPvfjZrWubkmDfWKeR-1" target="1UQPvfjZrWubkmDfWKeR-16">
          <mxGeometry width="50" height="50" relative="1" as="geometry">
            <mxPoint x="507" y="160" as="sourcePoint" />
            <mxPoint x="349" y="272" as="targetPoint" />
          </mxGeometry>
        </mxCell>
        <mxCell id="1UQPvfjZrWubkmDfWKeR-34" value="" style="endArrow=none;html=1;rounded=0;" edge="1" parent="1">
          <mxGeometry width="50" height="50" relative="1" as="geometry">
            <mxPoint x="640" y="150" as="sourcePoint" />
            <mxPoint x="640" y="170" as="targetPoint" />
            <Array as="points" />
          </mxGeometry>
        </mxCell>
        <mxCell id="1UQPvfjZrWubkmDfWKeR-35" value="" style="endArrow=none;html=1;rounded=0;" edge="1" parent="1">
          <mxGeometry width="50" height="50" relative="1" as="geometry">
            <mxPoint x="630" y="150" as="sourcePoint" />
            <mxPoint x="630" y="170" as="targetPoint" />
          </mxGeometry>
        </mxCell>
        <mxCell id="1UQPvfjZrWubkmDfWKeR-37" value="&lt;u&gt;Số ĐH&lt;/u&gt;" style="ellipse;whiteSpace=wrap;html=1;" vertex="1" parent="1">
          <mxGeometry x="190" y="420" width="60" height="40" as="geometry" />
        </mxCell>
        <mxCell id="1UQPvfjZrWubkmDfWKeR-38" value="Số lượng" style="ellipse;whiteSpace=wrap;html=1;" vertex="1" parent="1">
          <mxGeometry x="360" y="470" width="60" height="40" as="geometry" />
        </mxCell>
        <mxCell id="1UQPvfjZrWubkmDfWKeR-39" value="Ngày đặt" style="ellipse;whiteSpace=wrap;html=1;" vertex="1" parent="1">
          <mxGeometry x="340" y="405" width="60" height="40" as="geometry" />
        </mxCell>
        <mxCell id="1UQPvfjZrWubkmDfWKeR-40" value="" style="endArrow=none;html=1;rounded=0;" edge="1" parent="1" source="1UQPvfjZrWubkmDfWKeR-9" target="1UQPvfjZrWubkmDfWKeR-14">
          <mxGeometry width="50" height="50" relative="1" as="geometry">
            <mxPoint x="520" y="290" as="sourcePoint" />
            <mxPoint x="570" y="240" as="targetPoint" />
          </mxGeometry>
        </mxCell>
        <mxCell id="1UQPvfjZrWubkmDfWKeR-41" value="" style="endArrow=none;html=1;rounded=0;" edge="1" parent="1" source="1UQPvfjZrWubkmDfWKeR-39" target="1UQPvfjZrWubkmDfWKeR-14">
          <mxGeometry width="50" height="50" relative="1" as="geometry">
            <mxPoint x="507" y="160" as="sourcePoint" />
            <mxPoint x="349" y="272" as="targetPoint" />
          </mxGeometry>
        </mxCell>
        <mxCell id="1UQPvfjZrWubkmDfWKeR-42" value="" style="endArrow=none;html=1;rounded=0;" edge="1" parent="1" source="1UQPvfjZrWubkmDfWKeR-37" target="1UQPvfjZrWubkmDfWKeR-14">
          <mxGeometry width="50" height="50" relative="1" as="geometry">
            <mxPoint x="517" y="170" as="sourcePoint" />
            <mxPoint x="359" y="282" as="targetPoint" />
          </mxGeometry>
        </mxCell>
        <mxCell id="1UQPvfjZrWubkmDfWKeR-43" value="" style="endArrow=none;html=1;rounded=0;" edge="1" parent="1" source="1UQPvfjZrWubkmDfWKeR-14" target="1UQPvfjZrWubkmDfWKeR-38">
          <mxGeometry width="50" height="50" relative="1" as="geometry">
            <mxPoint x="507" y="160" as="sourcePoint" />
            <mxPoint x="349" y="272" as="targetPoint" />
          </mxGeometry>
        </mxCell>
        <mxCell id="1UQPvfjZrWubkmDfWKeR-47" value="" style="endArrow=none;html=1;rounded=0;" edge="1" parent="1">
          <mxGeometry width="50" height="50" relative="1" as="geometry">
            <mxPoint x="277" y="520" as="sourcePoint" />
            <mxPoint x="286" y="477" as="targetPoint" />
            <Array as="points">
              <mxPoint x="277" y="520" />
            </Array>
          </mxGeometry>
        </mxCell>
        <mxCell id="1UQPvfjZrWubkmDfWKeR-48" value="" style="endArrow=none;html=1;rounded=0;exitX=0.327;exitY=-0.017;exitDx=0;exitDy=0;exitPerimeter=0;" edge="1" parent="1">
          <mxGeometry width="50" height="50" relative="1" as="geometry">
            <mxPoint x="250" y="519" as="sourcePoint" />
            <mxPoint x="281" y="500" as="targetPoint" />
          </mxGeometry>
        </mxCell>
        <mxCell id="1UQPvfjZrWubkmDfWKeR-49" value="" style="endArrow=none;html=1;rounded=0;exitX=0.667;exitY=0;exitDx=0;exitDy=0;exitPerimeter=0;" edge="1" parent="1">
          <mxGeometry width="50" height="50" relative="1" as="geometry">
            <mxPoint x="291" y="520" as="sourcePoint" />
            <mxPoint x="281" y="500" as="targetPoint" />
          </mxGeometry>
        </mxCell>
        <mxCell id="1UQPvfjZrWubkmDfWKeR-50" value="" style="endArrow=none;html=1;rounded=0;" edge="1" parent="1">
          <mxGeometry width="50" height="50" relative="1" as="geometry">
            <mxPoint x="271" y="500" as="sourcePoint" />
            <mxPoint x="291" y="500" as="targetPoint" />
          </mxGeometry>
        </mxCell>
        <mxCell id="1UQPvfjZrWubkmDfWKeR-51" value="Tên hàng" style="ellipse;whiteSpace=wrap;html=1;" vertex="1" parent="1">
          <mxGeometry x="70" y="580" width="90" height="60" as="geometry" />
        </mxCell>
        <mxCell id="1UQPvfjZrWubkmDfWKeR-52" value="Đv tính" style="ellipse;whiteSpace=wrap;html=1;" vertex="1" parent="1">
          <mxGeometry x="150" y="670" width="90" height="60" as="geometry" />
        </mxCell>
        <mxCell id="1UQPvfjZrWubkmDfWKeR-53" value="Mô tả hàng" style="ellipse;whiteSpace=wrap;html=1;" vertex="1" parent="1">
          <mxGeometry x="275" y="610" width="90" height="60" as="geometry" />
        </mxCell>
        <mxCell id="1UQPvfjZrWubkmDfWKeR-54" value="&lt;u&gt;Mã hàng&lt;/u&gt;" style="ellipse;whiteSpace=wrap;html=1;" vertex="1" parent="1">
          <mxGeometry x="60" y="470" width="90" height="60" as="geometry" />
        </mxCell>
        <mxCell id="1UQPvfjZrWubkmDfWKeR-55" value="" style="endArrow=none;html=1;rounded=0;" edge="1" parent="1" source="1UQPvfjZrWubkmDfWKeR-4" target="1UQPvfjZrWubkmDfWKeR-53">
          <mxGeometry width="50" height="50" relative="1" as="geometry">
            <mxPoint x="250" y="388" as="sourcePoint" />
            <mxPoint x="159" y="399" as="targetPoint" />
          </mxGeometry>
        </mxCell>
        <mxCell id="1UQPvfjZrWubkmDfWKeR-56" value="" style="endArrow=none;html=1;rounded=0;" edge="1" parent="1" source="1UQPvfjZrWubkmDfWKeR-4" target="1UQPvfjZrWubkmDfWKeR-52">
          <mxGeometry width="50" height="50" relative="1" as="geometry">
            <mxPoint x="260" y="398" as="sourcePoint" />
            <mxPoint x="169" y="409" as="targetPoint" />
          </mxGeometry>
        </mxCell>
        <mxCell id="1UQPvfjZrWubkmDfWKeR-57" value="" style="endArrow=none;html=1;rounded=0;" edge="1" parent="1" source="1UQPvfjZrWubkmDfWKeR-4" target="1UQPvfjZrWubkmDfWKeR-51">
          <mxGeometry width="50" height="50" relative="1" as="geometry">
            <mxPoint x="270" y="408" as="sourcePoint" />
            <mxPoint x="179" y="419" as="targetPoint" />
          </mxGeometry>
        </mxCell>
        <mxCell id="1UQPvfjZrWubkmDfWKeR-58" value="" style="endArrow=none;html=1;rounded=0;" edge="1" parent="1" source="1UQPvfjZrWubkmDfWKeR-4" target="1UQPvfjZrWubkmDfWKeR-54">
          <mxGeometry width="50" height="50" relative="1" as="geometry">
            <mxPoint x="280" y="418" as="sourcePoint" />
            <mxPoint x="189" y="429" as="targetPoint" />
          </mxGeometry>
        </mxCell>
        <mxCell id="1UQPvfjZrWubkmDfWKeR-59" value="" style="endArrow=none;html=1;rounded=0;exitX=1;exitY=0.5;exitDx=0;exitDy=0;" edge="1" parent="1" source="1UQPvfjZrWubkmDfWKeR-4" target="1UQPvfjZrWubkmDfWKeR-15">
          <mxGeometry width="50" height="50" relative="1" as="geometry">
            <mxPoint x="367" y="553" as="sourcePoint" />
            <mxPoint x="376" y="510" as="targetPoint" />
            <Array as="points" />
          </mxGeometry>
        </mxCell>
        <mxCell id="1UQPvfjZrWubkmDfWKeR-60" value="" style="endArrow=none;html=1;rounded=0;exitX=1;exitY=0;exitDx=0;exitDy=0;" edge="1" parent="1" source="1UQPvfjZrWubkmDfWKeR-4">
          <mxGeometry width="50" height="50" relative="1" as="geometry">
            <mxPoint x="340" y="552" as="sourcePoint" />
            <mxPoint x="350" y="540" as="targetPoint" />
          </mxGeometry>
        </mxCell>
        <mxCell id="1UQPvfjZrWubkmDfWKeR-61" value="" style="endArrow=none;html=1;rounded=0;exitX=1;exitY=1;exitDx=0;exitDy=0;" edge="1" parent="1">
          <mxGeometry width="50" height="50" relative="1" as="geometry">
            <mxPoint x="330" y="580" as="sourcePoint" />
            <mxPoint x="350" y="540" as="targetPoint" />
          </mxGeometry>
        </mxCell>
        <mxCell id="1UQPvfjZrWubkmDfWKeR-62" value="" style="endArrow=none;html=1;rounded=0;" edge="1" parent="1">
          <mxGeometry width="50" height="50" relative="1" as="geometry">
            <mxPoint x="350" y="530" as="sourcePoint" />
            <mxPoint x="350" y="550" as="targetPoint" />
            <Array as="points" />
          </mxGeometry>
        </mxCell>
        <mxCell id="1UQPvfjZrWubkmDfWKeR-63" value="Đơn giá" style="ellipse;whiteSpace=wrap;html=1;" vertex="1" parent="1">
          <mxGeometry x="480" y="480" width="60" height="40" as="geometry" />
        </mxCell>
        <mxCell id="1UQPvfjZrWubkmDfWKeR-64" value="Số lượng" style="ellipse;whiteSpace=wrap;html=1;" vertex="1" parent="1">
          <mxGeometry x="590" y="450" width="60" height="40" as="geometry" />
        </mxCell>
        <mxCell id="1UQPvfjZrWubkmDfWKeR-65" value="Ngày giao" style="ellipse;whiteSpace=wrap;html=1;" vertex="1" parent="1">
          <mxGeometry x="520" y="360" width="60" height="40" as="geometry" />
        </mxCell>
        <mxCell id="1UQPvfjZrWubkmDfWKeR-66" value="Số PG" style="ellipse;whiteSpace=wrap;html=1;" vertex="1" parent="1">
          <mxGeometry x="600" y="385" width="60" height="40" as="geometry" />
        </mxCell>
        <mxCell id="1UQPvfjZrWubkmDfWKeR-67" value="" style="endArrow=none;html=1;rounded=0;" edge="1" parent="1" source="1UQPvfjZrWubkmDfWKeR-15" target="1UQPvfjZrWubkmDfWKeR-64">
          <mxGeometry width="50" height="50" relative="1" as="geometry">
            <mxPoint x="220" y="583" as="sourcePoint" />
            <mxPoint x="164" y="605" as="targetPoint" />
          </mxGeometry>
        </mxCell>
        <mxCell id="1UQPvfjZrWubkmDfWKeR-68" value="" style="endArrow=none;html=1;rounded=0;" edge="1" parent="1" source="1UQPvfjZrWubkmDfWKeR-15" target="1UQPvfjZrWubkmDfWKeR-66">
          <mxGeometry width="50" height="50" relative="1" as="geometry">
            <mxPoint x="230" y="593" as="sourcePoint" />
            <mxPoint x="174" y="615" as="targetPoint" />
          </mxGeometry>
        </mxCell>
        <mxCell id="1UQPvfjZrWubkmDfWKeR-69" value="" style="endArrow=none;html=1;rounded=0;" edge="1" parent="1" source="1UQPvfjZrWubkmDfWKeR-15" target="1UQPvfjZrWubkmDfWKeR-65">
          <mxGeometry width="50" height="50" relative="1" as="geometry">
            <mxPoint x="240" y="603" as="sourcePoint" />
            <mxPoint x="184" y="625" as="targetPoint" />
          </mxGeometry>
        </mxCell>
        <mxCell id="1UQPvfjZrWubkmDfWKeR-70" value="" style="endArrow=none;html=1;rounded=0;" edge="1" parent="1" source="1UQPvfjZrWubkmDfWKeR-63" target="1UQPvfjZrWubkmDfWKeR-15">
          <mxGeometry width="50" height="50" relative="1" as="geometry">
            <mxPoint x="250" y="613" as="sourcePoint" />
            <mxPoint x="194" y="635" as="targetPoint" />
          </mxGeometry>
        </mxCell>
        <mxCell id="1UQPvfjZrWubkmDfWKeR-71" value="" style="endArrow=none;html=1;rounded=0;" edge="1" parent="1" source="1UQPvfjZrWubkmDfWKeR-15">
          <mxGeometry width="50" height="50" relative="1" as="geometry">
            <mxPoint x="768" y="458" as="sourcePoint" />
            <mxPoint x="610" y="570" as="targetPoint" />
          </mxGeometry>
        </mxCell>
        <mxCell id="1UQPvfjZrWubkmDfWKeR-72" value="" style="endArrow=none;html=1;rounded=0;" edge="1" parent="1">
          <mxGeometry width="50" height="50" relative="1" as="geometry">
            <mxPoint x="590" y="560" as="sourcePoint" />
            <mxPoint x="620" y="560" as="targetPoint" />
            <Array as="points" />
          </mxGeometry>
        </mxCell>
        <mxCell id="1UQPvfjZrWubkmDfWKeR-73" value="" style="endArrow=none;html=1;rounded=0;" edge="1" parent="1">
          <mxGeometry width="50" height="50" relative="1" as="geometry">
            <mxPoint x="620" y="551" as="sourcePoint" />
            <mxPoint x="589" y="551" as="targetPoint" />
          </mxGeometry>
        </mxCell>
        <mxCell id="1UQPvfjZrWubkmDfWKeR-74" value="" style="endArrow=none;html=1;rounded=0;" edge="1" parent="1" target="1UQPvfjZrWubkmDfWKeR-3">
          <mxGeometry width="50" height="50" relative="1" as="geometry">
            <mxPoint x="590" y="440" as="sourcePoint" />
            <mxPoint x="736" y="500" as="targetPoint" />
          </mxGeometry>
        </mxCell>
        <mxCell id="1UQPvfjZrWubkmDfWKeR-75" value="" style="endArrow=none;html=1;rounded=0;" edge="1" parent="1">
          <mxGeometry width="50" height="50" relative="1" as="geometry">
            <mxPoint x="730" y="470" as="sourcePoint" />
            <mxPoint x="730" y="490" as="targetPoint" />
            <Array as="points" />
          </mxGeometry>
        </mxCell>
        <mxCell id="1UQPvfjZrWubkmDfWKeR-76" value="" style="endArrow=none;html=1;rounded=0;" edge="1" parent="1">
          <mxGeometry width="50" height="50" relative="1" as="geometry">
            <mxPoint x="720" y="465" as="sourcePoint" />
            <mxPoint x="720" y="485" as="targetPoint" />
          </mxGeometry>
        </mxCell>
        <mxCell id="1UQPvfjZrWubkmDfWKeR-77" value="Mã số người giao" style="ellipse;whiteSpace=wrap;html=1;" vertex="1" parent="1">
          <mxGeometry x="465" y="650" width="90" height="60" as="geometry" />
        </mxCell>
        <mxCell id="1UQPvfjZrWubkmDfWKeR-78" value="Họ tên NG" style="ellipse;whiteSpace=wrap;html=1;" vertex="1" parent="1">
          <mxGeometry x="620" y="670" width="90" height="60" as="geometry" />
        </mxCell>
        <mxCell id="1UQPvfjZrWubkmDfWKeR-79" value="" style="endArrow=none;html=1;rounded=0;" edge="1" parent="1" source="1UQPvfjZrWubkmDfWKeR-12" target="1UQPvfjZrWubkmDfWKeR-78">
          <mxGeometry width="50" height="50" relative="1" as="geometry">
            <mxPoint x="265" y="590" as="sourcePoint" />
            <mxPoint x="219" y="682" as="targetPoint" />
          </mxGeometry>
        </mxCell>
        <mxCell id="1UQPvfjZrWubkmDfWKeR-80" value="" style="endArrow=none;html=1;rounded=0;" edge="1" parent="1" source="1UQPvfjZrWubkmDfWKeR-12" target="1UQPvfjZrWubkmDfWKeR-77">
          <mxGeometry width="50" height="50" relative="1" as="geometry">
            <mxPoint x="275" y="600" as="sourcePoint" />
            <mxPoint x="229" y="692" as="targetPoint" />
          </mxGeometry>
        </mxCell>
        <mxCell id="1UQPvfjZrWubkmDfWKeR-81" value="Tên nơi giao" style="ellipse;whiteSpace=wrap;html=1;" vertex="1" parent="1">
          <mxGeometry x="920" y="435" width="90" height="60" as="geometry" />
        </mxCell>
        <mxCell id="1UQPvfjZrWubkmDfWKeR-82" value="Mã số ĐĐG" style="ellipse;whiteSpace=wrap;html=1;" vertex="1" parent="1">
          <mxGeometry x="810" y="570" width="90" height="60" as="geometry" />
        </mxCell>
        <mxCell id="1UQPvfjZrWubkmDfWKeR-83" value="" style="endArrow=none;html=1;rounded=0;" edge="1" parent="1" source="1UQPvfjZrWubkmDfWKeR-3" target="1UQPvfjZrWubkmDfWKeR-81">
          <mxGeometry width="50" height="50" relative="1" as="geometry">
            <mxPoint x="637" y="640" as="sourcePoint" />
            <mxPoint x="660" y="682" as="targetPoint" />
          </mxGeometry>
        </mxCell>
        <mxCell id="1UQPvfjZrWubkmDfWKeR-84" value="" style="endArrow=none;html=1;rounded=0;" edge="1" parent="1" source="1UQPvfjZrWubkmDfWKeR-3" target="1UQPvfjZrWubkmDfWKeR-82">
          <mxGeometry width="50" height="50" relative="1" as="geometry">
            <mxPoint x="647" y="650" as="sourcePoint" />
            <mxPoint x="670" y="692" as="targetPoint" />
          </mxGeometry>
        </mxCell>
        <mxCell id="1UQPvfjZrWubkmDfWKeR-85" value="" style="endArrow=none;html=1;rounded=0;" edge="1" parent="1">
          <mxGeometry width="50" height="50" relative="1" as="geometry">
            <mxPoint x="290" y="410" as="sourcePoint" />
            <mxPoint x="310" y="410" as="targetPoint" />
          </mxGeometry>
        </mxCell>
        <mxCell id="1UQPvfjZrWubkmDfWKeR-86" value="" style="endArrow=none;html=1;rounded=0;" edge="1" parent="1">
          <mxGeometry width="50" height="50" relative="1" as="geometry">
            <mxPoint x="290" y="415" as="sourcePoint" />
            <mxPoint x="310" y="415" as="targetPoint" />
          </mxGeometry>
        </mxCell>
        <mxCell id="1UQPvfjZrWubkmDfWKeR-87" value="" style="endArrow=none;html=1;rounded=0;entryX=0.355;entryY=0.804;entryDx=0;entryDy=0;entryPerimeter=0;" edge="1" parent="1" target="1UQPvfjZrWubkmDfWKeR-16">
          <mxGeometry width="50" height="50" relative="1" as="geometry">
            <mxPoint x="746.5" y="290" as="sourcePoint" />
            <mxPoint x="755.5" y="247" as="targetPoint" />
            <Array as="points">
              <mxPoint x="746.5" y="290" />
            </Array>
          </mxGeometry>
        </mxCell>
        <mxCell id="1UQPvfjZrWubkmDfWKeR-88" value="" style="endArrow=none;html=1;rounded=0;exitX=0.327;exitY=-0.017;exitDx=0;exitDy=0;exitPerimeter=0;" edge="1" parent="1">
          <mxGeometry width="50" height="50" relative="1" as="geometry">
            <mxPoint x="719.5" y="289" as="sourcePoint" />
            <mxPoint x="750.5" y="270" as="targetPoint" />
          </mxGeometry>
        </mxCell>
        <mxCell id="1UQPvfjZrWubkmDfWKeR-89" value="" style="endArrow=none;html=1;rounded=0;exitX=0.667;exitY=0;exitDx=0;exitDy=0;exitPerimeter=0;" edge="1" parent="1">
          <mxGeometry width="50" height="50" relative="1" as="geometry">
            <mxPoint x="760.5" y="290" as="sourcePoint" />
            <mxPoint x="750.5" y="270" as="targetPoint" />
          </mxGeometry>
        </mxCell>
        <mxCell id="1UQPvfjZrWubkmDfWKeR-90" value="" style="endArrow=none;html=1;rounded=0;" edge="1" parent="1">
          <mxGeometry width="50" height="50" relative="1" as="geometry">
            <mxPoint x="740.5" y="270" as="sourcePoint" />
            <mxPoint x="760.5" y="270" as="targetPoint" />
          </mxGeometry>
        </mxCell>
        <mxCell id="1UQPvfjZrWubkmDfWKeR-91" value="" style="endArrow=none;html=1;rounded=0;" edge="1" parent="1" source="1UQPvfjZrWubkmDfWKeR-10">
          <mxGeometry width="50" height="50" relative="1" as="geometry">
            <mxPoint x="718" y="308" as="sourcePoint" />
            <mxPoint x="560" y="420" as="targetPoint" />
          </mxGeometry>
        </mxCell>
        <mxCell id="1UQPvfjZrWubkmDfWKeR-92" value="" style="endArrow=none;html=1;rounded=0;" edge="1" parent="1">
          <mxGeometry width="50" height="50" relative="1" as="geometry">
            <mxPoint x="660" y="350" as="sourcePoint" />
            <mxPoint x="660" y="370" as="targetPoint" />
            <Array as="points" />
          </mxGeometry>
        </mxCell>
        <mxCell id="1UQPvfjZrWubkmDfWKeR-93" value="" style="endArrow=none;html=1;rounded=0;" edge="1" parent="1">
          <mxGeometry width="50" height="50" relative="1" as="geometry">
            <mxPoint x="664.5" y="350" as="sourcePoint" />
            <mxPoint x="664.5" y="370" as="targetPoint" />
          </mxGeometry>
        </mxCell>
        <mxCell id="1UQPvfjZrWubkmDfWKeR-94" value="&lt;u&gt;Mã số NN&lt;/u&gt;" style="ellipse;whiteSpace=wrap;html=1;" vertex="1" parent="1">
          <mxGeometry x="820" y="350" width="90" height="60" as="geometry" />
        </mxCell>
        <mxCell id="1UQPvfjZrWubkmDfWKeR-95" value="Họ tên NN" style="ellipse;whiteSpace=wrap;html=1;" vertex="1" parent="1">
          <mxGeometry x="860" y="250" width="90" height="60" as="geometry" />
        </mxCell>
        <mxCell id="1UQPvfjZrWubkmDfWKeR-96" value="" style="endArrow=none;html=1;rounded=0;" edge="1" parent="1" source="1UQPvfjZrWubkmDfWKeR-94" target="1UQPvfjZrWubkmDfWKeR-10">
          <mxGeometry width="50" height="50" relative="1" as="geometry">
            <mxPoint x="490" y="145" as="sourcePoint" />
            <mxPoint x="437" y="159" as="targetPoint" />
          </mxGeometry>
        </mxCell>
        <mxCell id="1UQPvfjZrWubkmDfWKeR-97" value="" style="endArrow=none;html=1;rounded=0;" edge="1" parent="1" source="1UQPvfjZrWubkmDfWKeR-95" target="1UQPvfjZrWubkmDfWKeR-10">
          <mxGeometry width="50" height="50" relative="1" as="geometry">
            <mxPoint x="500" y="155" as="sourcePoint" />
            <mxPoint x="447" y="169" as="targetPoint" />
          </mxGeometry>
        </mxCell>
      </root>
    </mxGraphModel>
  </diagram>
</mxfile>
